<?xml version="1.0" standalone="no"?>
<!DOCTYPE svg PUBLIC "-//W3C//DTD SVG 20010904//EN"
 "http://www.w3.org/TR/2001/REC-SVG-20010904/DTD/svg10.dtd">
<svg version="1.0" xmlns="http://www.w3.org/2000/svg"
 width="160.000000pt" height="160.000000pt" viewBox="0 0 160.000000 160.000000"
 preserveAspectRatio="xMidYMid meet">
<metadata>
Created by potrace 1.11, written by Peter Selinger 2001-2013
</metadata>
<g transform="translate(0.000000,160.000000) scale(0.100000,-0.100000)"
fill="#000000" stroke="none">
<path d="M1137 1303 c-2 -1 -25 -5 -53 -8 -27 -3 -58 -7 -69 -9 -11 -2 -40 -7
-65 -11 -58 -10 -71 -12 -160 -30 -41 -8 -85 -17 -98 -20 -13 -2 -31 -6 -40
-9 -9 -3 -39 -8 -67 -11 -27 -3 -70 -8 -95 -12 -57 -8 -166 -7 -236 2 -29 3
-56 6 -59 6 -2 0 -23 6 -46 15 -23 8 -45 12 -48 8 -3 -3 -6 -203 -6 -444 0
-431 0 -439 20 -445 106 -30 143 -37 230 -40 55 -2 127 0 160 5 33 5 87 11
120 15 32 4 62 8 65 10 3 2 44 10 90 19 140 25 144 26 166 31 122 27 382 26
482 -3 39 -11 72 -17 73 -14 0 4 2 208 2 454 l2 447 -25 7 c-14 4 -29 8 -35
10 -70 20 -296 40 -308 27z"/>
</g>
</svg>
